<?xml version="1.0" encoding="UTF-8" standalone="no"?>
<svg
   xmlns:dc="http://purl.org/dc/elements/1.1/"
   xmlns:cc="http://creativecommons.org/ns#"
   xmlns:rdf="http://www.w3.org/1999/02/22-rdf-syntax-ns#"
   xmlns:svg="http://www.w3.org/2000/svg"
   xmlns="http://www.w3.org/2000/svg"
   viewBox="0 0 467.81332 122.66667"
   height="122.66667"
   width="467.81332"
   xml:space="preserve"
   id="svg2"
   version="1.1"><metadata
     id="metadata8"><rdf:RDF><cc:Work
         rdf:about=""><dc:format>image/svg+xml</dc:format><dc:type
           rdf:resource="http://purl.org/dc/dcmitype/StillImage" /></cc:Work></rdf:RDF></metadata><defs
     id="defs6"><clipPath
       id="clipPath20"
       clipPathUnits="userSpaceOnUse"><path
         id="path18"
         d="M 373,781 H 853 V 132 H 373 Z" /></clipPath><clipPath
       id="clipPath30"
       clipPathUnits="userSpaceOnUse"><path
         id="path28"
         d="M 133,720 H 600 V 72 H 133 Z" /></clipPath><clipPath
       id="clipPath40"
       clipPathUnits="userSpaceOnUse"><path
         id="path38"
         d="M 237,678 H 923 V 71 H 237 Z" /></clipPath><clipPath
       id="clipPath50"
       clipPathUnits="userSpaceOnUse"><path
         id="path48"
         d="M 13,920 H 493 V 0 H 13 Z" /></clipPath><clipPath
       id="clipPath56"
       clipPathUnits="userSpaceOnUse"><path
         id="path54"
         d="M -103.438,98.9844 177.281,1027.47 483.586,934.859 202.867,6.375 Z" /></clipPath><clipPath
       id="clipPath62"
       clipPathUnits="userSpaceOnUse"><path
         id="path60"
         d="M -103.617,99.7383 177.102,1028.22 646.129,886.418 365.41,-42.0664 Z" /></clipPath><clipPath
       id="clipPath68"
       clipPathUnits="userSpaceOnUse"><path
         id="path66"
         d="M -103.617,99.7383 177.102,1028.22 646.129,886.418 365.41,-42.0664 Z" /></clipPath><clipPath
       id="clipPath78"
       clipPathUnits="userSpaceOnUse"><path
         id="path76"
         d="M 67,914 C 30,914 0,884 0,848 c 0,-37 30,-66 66,-66 37,0 66,30 66,66 1,36 -29,66 -65,66" /></clipPath><clipPath
       id="clipPath88"
       clipPathUnits="userSpaceOnUse"><path
         id="path86"
         d="m 93,296 c -37,0 -66,-30 -66,-66 0,-37 30,-66 66,-66 37,0 66,30 66,66 0,36 -30,66 -66,66" /></clipPath></defs><g
     transform="matrix(1.3333333,0,0,-1.3333333,0,122.66667)"
     id="g10"><g
       transform="scale(0.1)"
       id="g12"><g
         id="g14"><g
           clip-path="url(#clipPath20)"
           id="g16"><path
             id="path22"
             style="fill:#0b2b59;fill-opacity:1;fill-rule:nonzero;stroke:none"
             d="m 489,670 c 63,0 125,-24 173,-71 46,-46 72,-107 72,-173 0,-65 -25,-127 -72,-173 -13,-13 -28,-25 -44,-35 l 78,-78 2,-2 c 15,11 29,23 42,36 34,34 60,73 78,118 17,42 26,87 26,134 0,47 -9,91 -26,134 -18,44 -44,84 -78,117 -34,34 -73,60 -118,78 -43,17 -88,26 -134,26 -36,0 -71,-5 -104,-16 l 96,-96 c 3,1 6,1 9,1" /></g></g><g
         id="g24"><g
           clip-path="url(#clipPath30)"
           id="g26"><path
             id="path32"
             style="fill:#0b2b59;fill-opacity:1;fill-rule:nonzero;stroke:none"
             d="m 497,183 c -3,0 -6,0 -9,0 -65,0 -127,25 -173,71 -95,95 -95,250 0,345 13,13 28,25 44,35 l -80,80 c -15,-11 -29,-23 -42,-36 -34,-34 -60,-73 -78,-118 -17,-43 -26,-87 -26,-134 0,-47 9,-91 26,-134 18,-44 44,-84 78,-118 34,-34 74,-60 118,-78 43,-17 88,-26 134,-26 36,0 71,5 104,16 l -96,97" /></g></g><g
         id="g34"><g
           clip-path="url(#clipPath40)"
           id="g36"><path
             id="path42"
             style="fill:#0b2b59;fill-opacity:1;fill-rule:nonzero;stroke:none"
             d="M 766,71 H 923 L 512,481 316,677 237,599 500,337 766,71" /></g></g><g
         id="g44"><g
           clip-path="url(#clipPath50)"
           id="g46"><g
             clip-path="url(#clipPath56)"
             id="g52"><g
               clip-path="url(#clipPath62)"
               id="g58"><g
                 clip-path="url(#clipPath68)"
                 id="g64"><path
                   id="path70"
                   style="fill:#3589a1;fill-opacity:1;fill-rule:nonzero;stroke:none"
                   d="M 646,886 631,836 C 400,906 156,777 87,548 18,320 150,77 380,7 L 365,-43 C 106,35 -41,307 36,563 114,819 388,964 646,886" /></g></g></g></g></g><g
         id="g72"><g
           clip-path="url(#clipPath78)"
           id="g74"><path
             id="path80"
             style="fill:#3589a1;fill-opacity:1;fill-rule:nonzero;stroke:none"
             d="M 0,914 H 133 V 781 H 0 v 133" /></g></g><g
         id="g82"><g
           clip-path="url(#clipPath88)"
           id="g84"><path
             id="path90"
             style="fill:#3589a1;fill-opacity:1;fill-rule:nonzero;stroke:none"
             d="M 26,296 H 159 V 163 H 26 v 133" /></g></g><path
         id="path92"
         style="fill:#0b2b59;fill-opacity:1;fill-rule:nonzero;stroke:none"
         d="m 1265.96,357.242 v 312 h -48 v -319 c 0,-19 -3,-35 -10,-48 -20,-38 -58,-58 -115,-58 -37,0 -67,8 -88,25 -25.003,18 -38.003,45 -38.003,81 v 319 h -49 v -312 c 0,-51 16,-91 49,-119 31,-27 73.003,-41 125.003,-41 51,0 93,14 124,41 34,28 50,68 50,119" /><path
         id="path94"
         style="fill:#0b2b59;fill-opacity:1;fill-rule:nonzero;stroke:none"
         d="m 1723.38,202.242 -204,498 -205,-498 h 52 l 50,127 h 205 l 50,-127 z m -289,172 85,215 84,-215 z" /><path
         id="path96"
         style="fill:#0b2b59;fill-opacity:1;fill-rule:nonzero;stroke:none"
         d="m 2079.66,528.242 c 0,40 -15,73.996 -44,101 -28,26 -63,40 -104,40 h -150 v -466 h 48 v 183.996 h 56 l 137,-183.996 h 64 l -144,184 c 36,2 67,15 93,39 28,27 44,61 44,102 z m -250,-95 v 190 h 108 c 28,0 51,-9 68,-27 16,-18 25,-40 25,-67 0,-27 -9,-50 -27,-69 -18,-19 -40,-27 -67,-27 h -107 v 0" /><path
         id="path98"
         style="fill:#0b2b59;fill-opacity:1;fill-rule:nonzero;stroke:none"
         d="m 2202.4,202.242 v 219 l 157,-219 h 62 l -171,233 171,233 h -62 l -157,-219 v 219 h -48 V 202.238 h 48 v 0.004" /><path
         id="path100"
         style="fill:#3589a1;fill-opacity:1;fill-rule:nonzero;stroke:none"
         d="m 2527.12,546.242 262,-372 v 495 h -48 v -343 l -262,372 V 202.238 h 48 c 0,0.004 0,344.004 0,344.004" /><path
         id="path102"
         style="fill:#3589a1;fill-opacity:1;fill-rule:nonzero;stroke:none"
         d="m 3169.69,202.242 v 45 h -229 v 166 h 222 v 45 h -222 v 166 h 229 v 45 h -277 v -466 h 277 v -1" /><path
         id="path104"
         style="fill:#3589a1;fill-opacity:1;fill-rule:nonzero;stroke:none"
         d="m 3234.57,625.242 h 113 v -422 h 48 v 422 h 113 v 45 h -274 v -45" /></g></g></svg>